<?xml version="1.0" encoding="UTF-8" standalone="no"?>
<!DOCTYPE svg PUBLIC "-//W3C//DTD SVG 1.1//EN" "http://www.w3.org/Graphics/SVG/1.1/DTD/svg11.dtd">
<svg width="100%" height="100%" viewBox="0 0 91 440" version="1.1" xmlns="http://www.w3.org/2000/svg" xmlns:xlink="http://www.w3.org/1999/xlink" xml:space="preserve" xmlns:serif="http://www.serif.com/" style="fill-rule:evenodd;clip-rule:evenodd;stroke-linejoin:round;stroke-miterlimit:1.41421;">
    <g id="Artboard1" transform="matrix(1,0,0,1,316.225,-32.3584)">
        <rect x="-316.225" y="32.358" width="91" height="439.523" style="fill:none;"/>
        <clipPath id="_clip1">
            <rect x="-316.225" y="32.358" width="91" height="439.523"/>
        </clipPath>
        <g clip-path="url(#_clip1)">
            <g transform="matrix(1,0,0,1,-269.95,78.2167)">
                <g transform="matrix(1,0,0,1,-45.5,-45.5)">
                    <g id="Circle" transform="matrix(1,0,0,1,-228.814,-230.984)">
                        <rect x="228.814" y="230.984" width="90.413" height="90.413" style="fill:none;"/>
                        <path d="M274.021,230.984C298.971,230.984 319.227,251.24 319.227,276.19C319.227,301.14 298.971,321.397 274.021,321.397C249.071,321.397 228.814,301.14 228.814,276.19C228.814,251.24 249.071,230.984 274.021,230.984ZM274.021,241.092C293.392,241.092 309.119,256.819 309.119,276.19C309.119,295.561 293.392,311.289 274.021,311.289C254.649,311.289 238.922,295.561 238.922,276.19C238.922,256.819 254.649,241.092 274.021,241.092Z" style="fill:rgb(197,197,197);"/>
                    </g>
                </g>
            </g>
            <g transform="matrix(0.91,0,0,0.91,-269.95,428.104)">
                <g transform="matrix(1,0,0,1,-50,-48.5)">
                    <clipPath id="_clip2">
                        <rect x="0" y="0" width="100" height="97"/>
                    </clipPath>
                    <g clip-path="url(#_clip2)">
                        <g id="Artboard11" serif:id="Artboard1" transform="matrix(1,0,0,1,-643.875,-380.295)">
                            <rect x="643.875" y="380.295" width="99.275" height="96.682" style="fill:none;"/>
                            <path d="M679.176,476.129C671.945,470.751 644.528,441.458 644.528,441.458C643.144,440.075 644.034,436.938 646.513,434.459L652.425,428.547C654.904,426.068 658.041,425.178 659.424,426.562L680.382,447.519L724.479,383.46C726.656,380.298 730.768,379.345 733.656,381.334L740.542,386.074C743.43,388.062 744.008,392.243 741.832,395.405L687.915,473.729C685.846,476.734 681.6,477.932 679.176,476.129Z" style="fill:rgb(13,140,128);"/>
                        </g>
                    </g>
                </g>
            </g>
            <g transform="matrix(1,0,0,1,-269.95,253.843)">
                <g transform="matrix(1,0,0,1,-45.5,-45.5)">
                    <g id="Circle1" serif:id="Circle" transform="matrix(1,0,0,1,-228.814,-230.984)">
                        <rect x="228.814" y="230.984" width="90.413" height="90.413" style="fill:none;"/>
                        <path d="M274.021,230.984C298.971,230.984 319.227,251.24 319.227,276.19C319.227,301.14 298.971,321.397 274.021,321.397C249.071,321.397 228.814,301.14 228.814,276.19C228.814,251.24 249.071,230.984 274.021,230.984ZM274.021,241.092C293.392,241.092 309.119,256.819 309.119,276.19C309.119,295.561 293.392,311.289 274.021,311.289C254.649,311.289 238.922,295.561 238.922,276.19C238.922,256.819 254.649,241.092 274.021,241.092Z" style="fill:rgb(197,197,197);"/>
                        <g transform="matrix(1.09303,0,0,1.09303,218.749,227.246)">
                            <circle cx="50.835" cy="44.779" r="25.726" style="fill:rgb(197,197,197);"/>
                        </g>
                    </g>
                </g>
            </g>
        </g>
    </g>
</svg>
