<?xml version="1.0" encoding="UTF-8" standalone="no"?>
<!DOCTYPE svg PUBLIC "-//W3C//DTD SVG 1.1//EN" "http://www.w3.org/Graphics/SVG/1.1/DTD/svg11.dtd">
<svg width="100%" height="100%" viewBox="0 0 100 97" version="1.1" xmlns="http://www.w3.org/2000/svg" xmlns:xlink="http://www.w3.org/1999/xlink" xml:space="preserve" xmlns:serif="http://www.serif.com/" style="fill-rule:evenodd;clip-rule:evenodd;stroke-linejoin:round;stroke-miterlimit:1.41421;">
    <g id="Artboard1" transform="matrix(1,0,0,1,-643.875,-380.295)">
        <rect x="643.875" y="380.295" width="99.275" height="96.682" style="fill:none;"/>
        <path d="M679.176,476.129C671.945,470.751 644.528,441.458 644.528,441.458C643.144,440.075 644.034,436.938 646.513,434.459L652.425,428.547C654.904,426.068 658.041,425.178 659.424,426.562L680.382,447.519L724.479,383.46C726.656,380.298 730.768,379.345 733.656,381.334L740.542,386.074C743.43,388.062 744.008,392.243 741.832,395.405L687.915,473.729C685.846,476.734 681.6,477.932 679.176,476.129Z" style="fill:rgb(13,140,128);"/>
    </g>
</svg>
