<?xml version="1.0" encoding="UTF-8" standalone="no"?>
<!DOCTYPE svg PUBLIC "-//W3C//DTD SVG 1.1//EN" "http://www.w3.org/Graphics/SVG/1.1/DTD/svg11.dtd">
<svg width="100%" height="100%" viewBox="0 0 91 91" version="1.1" xmlns="http://www.w3.org/2000/svg" xmlns:xlink="http://www.w3.org/1999/xlink" xml:space="preserve" xmlns:serif="http://www.serif.com/" style="fill-rule:evenodd;clip-rule:evenodd;stroke-linejoin:round;stroke-miterlimit:1.41421;">
    <g id="Circle" transform="matrix(1,0,0,1,-228.814,-230.984)">
        <rect x="228.814" y="230.984" width="90.413" height="90.413" style="fill:none;"/>
        <path d="M274.021,230.984C298.971,230.984 319.227,251.24 319.227,276.19C319.227,301.14 298.971,321.397 274.021,321.397C249.071,321.397 228.814,301.14 228.814,276.19C228.814,251.24 249.071,230.984 274.021,230.984ZM274.021,241.092C293.392,241.092 309.119,256.819 309.119,276.19C309.119,295.561 293.392,311.289 274.021,311.289C254.649,311.289 238.922,295.561 238.922,276.19C238.922,256.819 254.649,241.092 274.021,241.092Z" style="fill:rgb(165,164,167);"/>
        <g transform="matrix(1.09303,0,0,1.09303,218.749,227.246)">
            <circle cx="50.835" cy="44.779" r="25.726" style="fill:rgb(165,164,167);"/>
        </g>
    </g>
</svg>
