<?xml version="1.0" encoding="UTF-8" standalone="no"?>
<!DOCTYPE svg PUBLIC "-//W3C//DTD SVG 1.1//EN" "http://www.w3.org/Graphics/SVG/1.1/DTD/svg11.dtd">
<svg width="100%" height="100%" viewBox="0 0 500 500" version="1.1" xmlns="http://www.w3.org/2000/svg" xmlns:xlink="http://www.w3.org/1999/xlink" xml:space="preserve" xmlns:serif="http://www.serif.com/" style="fill-rule:evenodd;clip-rule:evenodd;stroke-linejoin:round;stroke-miterlimit:1.41421;">
    <g transform="matrix(1,0,0,1,-1696.75,0)">
        <g id="Menu-Icon" serif:id="Menu Icon" transform="matrix(0.444444,0,0,0.205255,-3013.16,0)">
            <rect x="10597.3" y="0" width="1125" height="2436" style="fill:none;"/>
            <clipPath id="_clip1">
                <rect x="10597.3" y="0" width="1125" height="2436"/>
            </clipPath>
            <g clip-path="url(#_clip1)">
                <g>
                    <g transform="matrix(2.70385,0,0,8.30736,5929.79,45.8065)">
                        <path d="M2142.31,74.598C2142.31,71.223 2138.43,68.482 2133.64,68.482L1734.92,68.482C1730.13,68.482 1726.24,71.223 1726.24,74.598L1726.24,86.83C1726.24,90.206 1730.13,92.946 1734.92,92.946L2133.64,92.946C2138.43,92.946 2142.31,90.206 2142.31,86.83L2142.31,74.598Z" style="fill:white;"/>
                    </g>
                    <g transform="matrix(2.02789,0,0,8.30736,7377.91,547.477)">
                        <path d="M2142.31,74.598C2142.31,71.223 2137.13,68.482 2130.74,68.482L1737.81,68.482C1731.42,68.482 1726.24,71.223 1726.24,74.598L1726.24,86.83C1726.24,90.206 1731.42,92.946 1737.81,92.946L2130.74,92.946C2137.13,92.946 2142.31,90.206 2142.31,86.83L2142.31,74.598Z" style="fill:white;"/>
                    </g>
                    <g transform="matrix(1.35193,0,0,8.30736,8826.04,1049.15)">
                        <path d="M2142.31,74.598C2142.31,71.223 2134.54,68.482 2124.96,68.482L1743.6,68.482C1734.02,68.482 1726.24,71.223 1726.24,74.598L1726.24,86.83C1726.24,90.206 1734.02,92.946 1743.6,92.946L2124.96,92.946C2134.54,92.946 2142.31,90.206 2142.31,86.83L2142.31,74.598Z" style="fill:white;"/>
                    </g>
                </g>
            </g>
        </g>
    </g>
</svg>
