<?xml version="1.0" encoding="UTF-8" standalone="no"?>
<!DOCTYPE svg PUBLIC "-//W3C//DTD SVG 1.1//EN" "http://www.w3.org/Graphics/SVG/1.1/DTD/svg11.dtd">
<svg width="100%" height="100%" viewBox="0 0 91 91" version="1.1" xmlns="http://www.w3.org/2000/svg" xmlns:xlink="http://www.w3.org/1999/xlink" xml:space="preserve" xmlns:serif="http://www.serif.com/" style="fill-rule:evenodd;clip-rule:evenodd;stroke-linejoin:round;stroke-miterlimit:1.41421;">
    <g id="Plus" transform="matrix(1,0,0,1,-228.815,-230.984)">
        <rect x="228.814" y="230.984" width="90.413" height="90.413" style="fill:none;"/>
        <g transform="matrix(1.08109,0,0,1,112.534,230.984)">
            <path d="M156.324,5.769C156.324,2.585 154.519,0 152.296,0L146.996,0C144.773,0 142.968,2.585 142.968,5.769L142.968,84.644C142.968,87.828 144.773,90.413 146.996,90.413L152.296,90.413C154.519,90.413 156.324,87.828 156.324,84.644L156.324,5.769Z" style="fill:rgb(165,164,167);"/>
        </g>
        <g transform="matrix(6.61979e-17,1.08109,-1,6.12323e-17,319.815,114.703)">
            <path d="M156.324,5.769C156.324,2.585 154.519,0 152.296,0L146.996,0C144.773,0 142.968,2.585 142.968,5.769L142.968,84.644C142.968,87.828 144.773,90.413 146.996,90.413L152.296,90.413C154.519,90.413 156.324,87.828 156.324,84.644L156.324,5.769Z" style="fill:rgb(165,164,167);"/>
        </g>
    </g>
</svg>
